<svg xmlns="http://www.w3.org/2000/svg" viewBox="0 0 512 512">
  <defs>
    <linearGradient id="bgGrad" x1="0%" y1="0%" x2="100%" y2="100%">
      <stop offset="0%" style="stop-color:#10b981;stop-opacity:1" />
      <stop offset="100%" style="stop-color:#059669;stop-opacity:1" />
    </linearGradient>
    <filter id="glow" x="-20%" y="-20%" width="140%" height="140%">
      <feGaussianBlur in="SourceGraphic" stdDeviation="5" result="blur" />
      <feMerge>
        <feMergeNode in="blur" />
        <feMergeNode in="SourceGraphic" />
      </feMerge>
    </filter>
  </defs>

  <!-- Background Layer -->
  <rect width="512" height="512" rx="128" fill="url(#bgGrad)" />
  
  <!-- Spiritual Path / Crescent -->
  <path d="M380 256C380 160 290 80 180 80C220 80 260 120 260 256C260 392 220 432 180 432C290 432 380 352 380 256Z" fill="white" fill-opacity="0.1" />
  
  <g filter="url(#glow)">
    <!-- Golden Crescent Moon -->
    <path d="M340 160C260 160 200 210 200 280C200 350 260 400 340 400C300 420 220 420 180 370C140 320 140 240 180 190C220 140 300 140 340 160Z" fill="#fbbf24" />
    
    <!-- Mini Star -->
    <path d="M350 210L354 222L366 222L356 230L360 242L350 234L340 242L344 230L334 222L346 222L350 210Z" fill="#fbbf24" />
  </g>
  
  <!-- Abstract Journey Line -->
  <path d="M120 400C150 400 180 350 180 256C180 162 150 112 120 112" stroke="white" stroke-width="8" stroke-linecap="round" fill="none" opacity="0.4" />
</svg>
